<svg width="24" height="24" viewBox="0 0 24 24" fill="none" xmlns="http://www.w3.org/2000/svg">
<g clip-path="url(#clip0_591_1989)">
<path d="M1.71387 5.99979H22.2853M7.71387 5.99979V5.14265C7.71387 4.00601 8.1654 2.91592 8.96912 2.11219C9.77285 1.30846 10.8629 0.856934 11.9996 0.856934C13.1362 0.856934 14.2263 1.30846 15.03 2.11219C15.8338 2.91592 16.2853 4.00601 16.2853 5.14265V5.99979M9.42815 9.42836V18.8569M14.571 9.42836V18.8569M4.2853 5.99979H19.7139V21.4284C19.7139 21.883 19.5333 22.3191 19.2118 22.6405C18.8903 22.962 18.4542 23.1426 17.9996 23.1426H5.99958C5.54492 23.1426 5.10889 22.962 4.7874 22.6405C4.46591 22.3191 4.2853 21.883 4.2853 21.4284V5.99979Z" stroke="#DC0000" stroke-width="1.5" stroke-linecap="round" stroke-linejoin="round"/>
</g>
<defs>
<clipPath id="clip0_591_1989">
<rect width="24" height="24" fill="white"/>
</clipPath>
</defs>
</svg>
