<svg width="25" height="24" viewBox="0 0 25 24" fill="none" xmlns="http://www.w3.org/2000/svg">
<rect x="4.5" y="2" width="17.5" height="20" rx="4" stroke="black" stroke-opacity="0.6" stroke-width="1.5" stroke-linecap="round" stroke-linejoin="round"/>
<path d="M11.09 13.7408C10.4612 14.162 8.81261 15.0221 9.81674 16.0983C10.3072 16.624 10.8536 17 11.5404 17H15.4596C16.1464 17 16.6928 16.624 17.1833 16.0983C18.1874 15.0221 16.5388 14.162 15.91 13.7408C14.4355 12.7531 12.5645 12.7531 11.09 13.7408Z" stroke="black" stroke-opacity="0.6" stroke-width="1.5" stroke-linecap="round"/>
<path d="M15.5 9C15.5 10.1046 14.6046 11 13.5 11C12.3954 11 11.5 10.1046 11.5 9C11.5 7.89543 12.3954 7 13.5 7C14.6046 7 15.5 7.89543 15.5 9Z" stroke="black" stroke-opacity="0.6" stroke-width="1.5" stroke-linecap="round"/>
<path d="M5.5 6L3 6M5.5 12L3 12M5.5 18H3" stroke="black" stroke-opacity="0.6" stroke-width="1.5" stroke-linecap="round" stroke-linejoin="round"/>
</svg>
