<svg width="24" height="24" viewBox="0 0 24 24" fill="none" xmlns="http://www.w3.org/2000/svg">
<g clip-path="url(#clip0_532_1439)">
<path d="M16.9269 16.9666C16.7791 16.8708 16.5994 16.8373 16.427 16.8735C16.2546 16.9098 16.1036 17.0127 16.0069 17.16C15.0669 18.6 13.3402 20.3666 11.8002 20.96C10.2602 21.5533 9.05352 21.34 8.57352 20.96C8.36686 20.78 7.82686 20.2933 8.28686 18.6333C8.59352 17.5266 10.5002 12.3133 10.9535 11.0466L9.50019 11.2333C9.04019 12.4733 7.30686 17.1266 6.99352 18.2866C6.54019 19.9466 6.76686 21.1533 7.72019 21.9933C8.3863 22.4606 9.18706 22.6971 10.0002 22.6666C10.7892 22.6553 11.5692 22.497 12.3002 22.2C14.1602 21.4733 16.1135 19.4533 17.1402 17.8866C17.1867 17.8123 17.2181 17.7294 17.2326 17.6429C17.2471 17.5564 17.2443 17.4678 17.2245 17.3823C17.2047 17.2969 17.1682 17.2162 17.1171 17.1448C17.066 17.0735 17.0014 17.0129 16.9269 16.9666Z" fill="black"/>
<path d="M12.8662 7.33338C13.4596 7.33338 14.0396 7.15743 14.5329 6.82778C15.0263 6.49814 15.4108 6.0296 15.6378 5.48143C15.8649 4.93325 15.9243 4.33005 15.8086 3.7481C15.6928 3.16616 15.4071 2.63161 14.9875 2.21205C14.568 1.7925 14.0334 1.50678 13.4515 1.39102C12.8695 1.27526 12.2663 1.33467 11.7182 1.56174C11.17 1.7888 10.7014 2.17332 10.3718 2.66666C10.0422 3.16001 9.86621 3.74003 9.86621 4.33338C9.86621 5.12902 10.1823 5.89209 10.7449 6.4547C11.3075 7.0173 12.0706 7.33338 12.8662 7.33338ZM12.8662 2.66671C13.1958 2.66671 13.5181 2.76446 13.7922 2.94759C14.0662 3.13073 14.2799 3.39103 14.406 3.69557C14.5322 4.00011 14.5652 4.33522 14.5009 4.65853C14.4365 4.98183 14.2778 5.2788 14.0447 5.51189C13.8116 5.74497 13.5147 5.90371 13.1914 5.96802C12.8681 6.03233 12.5329 5.99932 12.2284 5.87317C11.9239 5.74703 11.6636 5.53341 11.4804 5.25933C11.2973 4.98524 11.1995 4.66301 11.1995 4.33338C11.1995 3.89135 11.3751 3.46742 11.6877 3.15486C12.0003 2.8423 12.4242 2.66671 12.8662 2.66671Z" fill="black"/>
<path d="M7.87337 9.99996C7.91337 9.99996 12.0534 9.4533 13.0267 9.3333C13.46 9.26663 13.7867 9.3333 13.8934 9.4333C14 9.5333 14.0334 9.96663 13.8467 10.5533C13.44 11.7933 11.3867 17.8866 10.7867 19.6933C11.08 19.6331 11.3677 19.5484 11.6467 19.44C11.9136 19.3296 12.1702 19.1957 12.4134 19.04C13.2334 16.6666 14.7667 12.0666 15.1134 11.0133C15.46 9.95996 15.3734 9.15996 14.9134 8.6133C14.651 8.34723 14.3225 8.15576 13.9616 8.05853C13.6008 7.96129 13.2206 7.96179 12.86 8.05996C11.9067 8.15996 7.88004 8.68663 7.70671 8.72663C7.5299 8.74962 7.36946 8.8419 7.26069 8.98318C7.15191 9.12445 7.10372 9.30315 7.12671 9.47996C7.14969 9.65677 7.24197 9.81721 7.38325 9.92598C7.52453 10.0348 7.70323 10.0829 7.88004 10.06L7.87337 9.99996Z" fill="black"/>
</g>
<defs>
<clipPath id="clip0_532_1439">
<rect width="24" height="24" fill="white"/>
</clipPath>
</defs>
</svg>
